<svg width="611" height="659" viewBox="0 0 611 659" fill="none" xmlns="http://www.w3.org/2000/svg">
<path d="M612.3 541.405C571.501 496.575 611.886 378.01 571.087 333.18C530.289 288.351 408.307 317.257 367.508 272.427C326.71 227.597 367.095 109.032 326.296 64.2021C285.498 19.3724 163.516 48.2784 122.717 3.44867" stroke="#A52AAF" stroke-width="2" stroke-linecap="round" stroke-linejoin="round"/>
<path d="M620.268 383.278C589.47 350.921 503.979 370.519 473.181 338.163C442.383 305.806 466.279 221.495 435.481 189.139C404.683 156.782 319.192 176.381 288.394 144.024C257.596 111.668 281.491 27.3565 250.693 -4.99997" stroke="#4A266D" stroke-width="3" stroke-linecap="round" stroke-linejoin="round"/>
<path d="M603.112 469.489C567.433 416.787 594.373 321.916 558.694 269.213C523.015 216.511 424.716 205.977 389.037 153.275C353.358 100.573 380.299 5.70212 344.62 -47.0001" stroke="#AB74E2"/>
</svg>
