<svg width="693" height="1024" viewBox="0 0 693 1024" fill="none" xmlns="http://www.w3.org/2000/svg">
<path d="M51.9175 1145.25C59.3956 1121.04 96.5199 1052.41 96.7862 1000.03C97.0525 947.642 53.2491 883.315 53.5154 830.929C53.7818 778.543 98.1178 738.097 98.3842 685.711C98.6505 633.325 54.8471 568.998 55.1134 516.612C55.3797 464.226 99.7158 423.781 99.9821 371.395C100.248 319.009 56.445 254.682 56.7113 202.296C56.9777 149.909 101.314 109.464 101.58 57.0782C101.846 4.69214 58.043 -59.6349 58.3093 -112.021C58.5756 -164.407 95.6999 -233.035 103.178 -257.238" stroke="#AB74E2" stroke-width="2" stroke-linecap="round" stroke-linejoin="round"/>
<path d="M-61.0454 979.558C-48.8714 963.579 1.71233 924.809 11.9985 883.685C22.2847 842.562 -9.61451 773.94 0.671665 732.816C10.9578 691.692 63.4294 678.067 73.7156 636.944C84.0018 595.82 52.1026 527.198 62.3887 486.074C72.6749 444.951 125.146 431.326 135.433 390.202C145.719 349.078 113.82 280.456 124.106 239.332C134.392 198.209 186.864 184.584 197.15 143.46C207.436 102.337 175.537 33.7143 185.823 -7.4093C196.109 -48.5329 246.693 -87.3028 258.867 -103.281" stroke="#331253" stroke-width="3" stroke-linecap="round" stroke-linejoin="round"/>
<path d="M72.7107 1040.42C79.1077 1018.74 112.968 956.556 111.092 910.345C109.217 864.133 63.3315 809.363 61.4556 763.152C59.5798 716.941 101.713 679.288 99.8374 633.077C97.9616 586.866 52.0764 532.095 50.2006 485.884C48.3247 439.673 90.4582 402.02 88.5823 355.809C86.7065 309.598 40.8214 254.827 38.9455 208.616C37.0697 162.405 79.2031 124.752 77.3273 78.541C75.4514 32.3297 29.5663 -22.4405 27.6905 -68.6518C25.8146 -114.863 59.6753 -177.048 66.0722 -198.727" stroke="#A52AAF" stroke-width="3" stroke-linecap="round" stroke-linejoin="round"/>
</svg>
