<svg width="1440" height="144" viewBox="0 0 1440 144" fill="none" xmlns="http://www.w3.org/2000/svg">
<g clip-path="url(#clip0_374_8)">
<path d="M11 96.9795C38.3148 104.816 120.259 144 174.889 144C229.519 144 284.148 96.9795 338.778 96.9795C393.407 96.9795 448.037 144 502.667 144C557.296 144 611.926 96.9795 666.556 96.9795C721.185 96.9795 775.815 144 830.444 144C885.074 144 939.704 96.9795 994.333 96.9795C1048.96 96.9795 1103.59 144 1158.22 144C1212.85 144 1267.48 96.9795 1322.11 96.9795C1376.74 96.9795 1458.69 136.163 1486 144" stroke="#4C2A84" stroke-width="2" stroke-linecap="round" stroke-linejoin="round"/>
<path d="M-58 101.877C-12.1 106.775 125.6 131.265 217.4 131.265C309.2 131.265 401 101.877 492.8 101.877C584.6 101.877 676.4 131.265 768.2 131.265C860 131.265 951.8 101.877 1043.6 101.877C1135.4 101.877 1227.2 131.265 1319 131.265C1410.8 131.265 1502.6 101.877 1594.4 101.877C1686.2 101.877 1778 131.265 1869.8 131.265C1961.6 131.265 2053.4 101.877 2145.2 101.877C2237 101.877 2328.8 131.265 2420.6 131.265C2512.4 131.265 2650.1 106.775 2696 101.877" stroke="#AB74E2" stroke-width="2" stroke-linecap="round" stroke-linejoin="round"/>
<path d="M0 96.9795C37.4444 103.51 149.778 136.163 224.667 136.163C299.556 136.163 374.444 96.9795 449.333 96.9795C524.222 96.9795 599.111 136.163 674 136.163C748.889 136.163 823.778 96.9795 898.667 96.9795C973.556 96.9795 1048.44 136.163 1123.33 136.163C1198.22 136.163 1273.11 96.9795 1348 96.9795C1422.89 96.9795 1497.78 136.163 1572.67 136.163C1647.56 136.163 1722.44 96.9795 1797.33 96.9795C1872.22 96.9795 1984.56 129.633 2022 136.163" stroke="#80008B" stroke-width="2" stroke-linecap="round" stroke-linejoin="round"/>
</g>
<defs>
<clipPath id="clip0_374_8">
<rect width="1440" height="144" fill="white"/>
</clipPath>
</defs>
</svg>
