<svg width="2091" height="1194" viewBox="0 0 2091 1194" fill="none" xmlns="http://www.w3.org/2000/svg">
<path d="M248.121 544.911C275.897 552.829 352.705 591.419 414.774 592.422C476.843 593.426 558.467 549.929 620.536 550.933C682.605 551.936 725.119 597.441 787.188 598.444C849.258 599.448 930.881 555.951 992.95 556.955C1055.02 557.958 1097.53 603.463 1159.6 604.466C1221.67 605.47 1303.3 561.973 1365.37 562.976C1427.43 563.98 1469.95 609.485 1532.02 610.488C1594.09 611.492 1675.71 567.995 1737.78 568.998C1799.85 570.002 1876.66 608.592 1904.43 616.51" stroke="#AB74E2" stroke-width="2" stroke-linecap="round" stroke-linejoin="round"/>
<path d="M472.686 502.04C492.726 511.947 542.494 557.502 592.928 561.478C643.363 565.454 724.856 521.921 775.29 525.897C825.725 529.874 845.099 581.359 895.533 585.335C945.967 589.311 1027.46 545.778 1077.9 549.754C1128.33 553.731 1147.7 605.216 1198.14 609.192C1248.57 613.168 1330.07 569.635 1380.5 573.612C1430.93 577.588 1450.31 629.073 1500.74 633.049C1551.18 637.025 1632.67 593.493 1683.1 597.469C1733.54 601.445 1783.31 647 1803.35 656.906" stroke="#331253" stroke-width="3" stroke-linecap="round" stroke-linejoin="round"/>
<path d="M369.84 567.454C394.756 574.242 464.325 609.433 519.337 608.179C574.349 606.925 644.898 561.184 699.91 559.93C754.921 558.676 794.395 601.909 849.407 600.655C904.418 599.4 974.968 553.66 1029.98 552.405C1084.99 551.151 1124.46 594.384 1179.48 593.13C1234.49 591.876 1305.04 546.135 1360.05 544.881C1415.06 543.627 1454.53 586.86 1509.55 585.606C1564.56 584.352 1635.11 538.611 1690.12 537.357C1745.13 536.102 1814.7 571.294 1839.62 578.081" stroke="#A52AAF" stroke-width="3" stroke-linecap="round" stroke-linejoin="round"/>
</svg>
