<svg width="832" height="464" viewBox="0 0 832 464" fill="none" xmlns="http://www.w3.org/2000/svg">
<path d="M-146.323 109.647C-132.347 123.459 -96.0159 176.996 -62.4644 192.519C-28.9129 208.042 21.4346 187.262 54.9861 202.785C88.5376 218.309 105.293 270.134 138.845 285.657C172.396 301.18 222.744 280.401 256.295 295.924C289.847 311.447 306.602 363.273 340.154 378.796C373.705 394.319 424.053 373.539 457.604 389.062C491.156 404.585 507.911 456.411 541.463 471.934C575.014 487.457 625.362 466.677 658.913 482.2C692.465 497.723 728.795 551.26 742.772 565.072" stroke="#AB74E2" stroke-width="2" stroke-linecap="round" stroke-linejoin="round"/>
<path d="M-16.614 56C-8.88702 71.6522 5.49862 128.63 29.7479 149.913C53.9972 171.197 104.633 162.417 128.882 183.7C153.131 204.984 150.994 256.33 175.244 277.614C199.493 298.897 250.128 290.118 274.378 311.401C298.627 332.684 296.49 384.031 320.74 405.314C344.989 426.598 395.624 417.818 419.874 439.101C444.123 460.385 441.986 511.731 466.235 533.015C490.485 554.298 541.12 545.518 565.369 566.802C589.619 588.085 604.004 645.063 611.731 660.715" stroke="#331253" stroke-width="3" stroke-linecap="round" stroke-linejoin="round"/>
<path d="M-83.386 159C-70.8044 171.1 -37.931 219.81 -7.89669 231.598C22.1377 243.386 66.7858 217.939 96.8201 229.726C126.854 241.514 142.275 290.537 172.309 302.324C202.344 314.112 246.992 288.665 277.026 300.453C307.061 312.24 322.481 361.263 352.516 373.051C382.55 384.838 427.198 359.391 457.232 371.179C487.267 382.967 502.687 431.989 532.722 443.777C562.756 455.565 607.404 430.118 637.438 441.905C667.473 453.693 700.346 502.404 712.928 514.503" stroke="#A52AAF" stroke-width="3" stroke-linecap="round" stroke-linejoin="round"/>
</svg>
